<svg width="80" height="96" viewBox="0 0 80 96" fill="none" xmlns="http://www.w3.org/2000/svg">
  <defs>
    <filter id="filter0_d_animated" x="7.99219" y="11" width="67.5625" height="76" filterUnits="userSpaceOnUse"
      color-interpolation-filters="sRGB">
      <feFlood flood-opacity="0" result="BackgroundImageFix" />
      <feColorMatrix in="SourceAlpha" type="matrix" values="0 0 0 0 0 0 0 0 0 0 0 0 0 0 0 0 0 0 127 0"
        result="hardAlpha" />
      <feOffset dx="2" dy="2" />
      <feComposite in2="hardAlpha" operator="out" />
      <feColorMatrix type="matrix" values="0 0 0 0 0 0 0 0 0 0 0 0 0 0 0 0 0 0 0.25 0" />
      <feBlend mode="normal" in2="BackgroundImageFix" result="effect1_dropShadow" />
      <feBlend mode="normal" in="SourceGraphic" in2="effect1_dropShadow" result="shape" />
    </filter>
    <style>
      /* Frames 1-7: visible for 12.5% then hide */
      @keyframes frameAnimation {

        0%,
        12.5% {
          opacity: 1;
        }

        12.51%,
        100% {
          opacity: 0;
        }
      }

      /* Frame 8: visible at 12.5% then stays visible (forwards keeps it) */
      @keyframes frameAnimationLast {

        0%,
        12.5% {
          opacity: 1;
        }

        12.51%,
        100% {
          opacity: 1;
        }
      }

      .frame {
        opacity: 0;
        animation: frameAnimation 4s forwards;
      }

      .frame-8 {
        animation-name: frameAnimationLast;
      }

      .frame-1 {
        animation-delay: 0s;
      }

      .frame-2 {
        animation-delay: 0.5s;
      }

      .frame-3 {
        animation-delay: 1s;
      }

      .frame-4 {
        animation-delay: 1.5s;
      }

      .frame-5 {
        animation-delay: 2s;
      }

      .frame-6 {
        animation-delay: 2.5s;
      }

      .frame-7 {
        animation-delay: 3s;
      }

      .frame-8 {
        animation-delay: 3.5s;
      }
    </style>
  </defs>

  <!-- Frame 1 -->
  <g class="frame frame-1" filter="url(#filter0_d_animated)">
    <path fill-rule="evenodd" clip-rule="evenodd" shape-rendering="crispedges"
      d="M53.8438 11.7598C53.8838 12.1778 53.9155 12.9108 53.916 13.3887L53.918 14.2578L55.0312 14.291L56.1445 14.3223L56.2031 31.1602L56.2578 32.5117V34.6523C56.2578 34.6523 55.8027 40.6475 55.8516 45.2865V47.8451H57.9873V46.4786H59.628H61.9524V44.6523V43.308H63.5086H64.837C64.837 43.308 64.9803 36.8452 65.0393 36.7754C65.0655 36.7496 66.5044 36.7423 68.2366 36.7598L71.387 36.791V38.6992H73.5549V47.3711H71.387V50.3346H68.2366V53.6273H65.0393L64.9922 60.2188H62.8242L62.7969 61.4863C62.7823 62.1828 62.7687 63.0693 62.7676 63.457L62.7656 64.1621H60.5391V64.6523C60.539 64.9221 60.5071 65.4536 60.4668 65.834L60.3926 66.5273H58.3711V70.3477L57.3711 70.3809L56.373 70.4121L56.3125 81.0566H54.0625L53.9902 81.5781C53.9503 81.8652 53.918 82.3215 53.918 82.5918V83.084H47.5234V85L34.4492 84.9414L34.3828 83.084H28.0254L27.957 82.8301C27.9192 82.6906 27.8875 82.2345 27.8867 81.8164L27.8848 81.0566H25.6016V72.375L27.8848 72.4102V74.2988H45.3535V72.3828H45.8398C46.1068 72.3823 46.5944 72.3496 46.9238 72.3105L47.5234 72.2402V70.3555L46.4961 70.3379C45.9312 70.3276 45.3836 70.3138 45.2793 70.3086C45.1162 70.3005 45.0938 70.4266 45.1152 71.2285L45.1406 72.1582H27.9004L27.7402 70.3555H23.5449V68.2168H21.3809L21.3184 62.416L19.2637 62.3027L19.2324 60.4141C19.1655 56.3788 19.1765 56.5889 19.2266 55.377L19.2637 54.4746L19.2324 52H17.0117V49.2773H16.0117V45.7539H13.9902L13.9707 44.5078L13.9922 43H12.0117V41H10.0117L10.0156 39H7.99219L8.01172 34.375H10.0078L9.99219 33H14.4922V34.375H15.9922V36.7598H18.6992V39H20.0117V41.7402H22.0117V42.6602H24.5449V40.332H23.5879L23.6035 36.7598H21.9629V34.375H19.9922V31.375H17.9922V28.1992H15.9922V21H22.3633V23.9434H23.9922V25.7773H25.7715V28.4453H27.543V31.5117H29.6914V33.4141H30.7949V35.3848L34.2207 35.3398C34.2572 34.6054 34.2908 33.9116 34.1543 33.1875L33.1602 33.2168L32.166 33.2441L32.1367 29.7793L29.9746 29.8223C29.8701 27.9027 29.8262 25.9863 29.8262 24.0645H27.543V14.3789H36.334V18.291L36.7617 18.3613C36.9973 18.3997 37.5119 18.431 37.9043 18.4316L38.6172 18.4336V19.5879C38.6174 20.2228 38.6525 21.4633 38.6934 22.3438L38.7676 23.9434L40.7305 24.0098L40.791 29.6406L42.957 29.5625V33.4141H44.9746V29.8223L44.8652 11H53.7695L53.8438 11.7598Z"
      fill="white" />
  </g>

  <!-- Frame 2 -->
  <g class="frame frame-2" filter="url(#filter0_d_animated)">
    <path fill-rule="evenodd" clip-rule="evenodd" shape-rendering="crispedges"
      d="M44.9193 22.2067L44.9733 33.4135H43.9644H42.9557V31.4878V29.5623L41.8728 29.6013L40.7899 29.6403L40.7596 26.8246L40.7292 24.0088L39.7477 23.9765L38.7662 23.9443L38.692 22.3434C38.6511 21.4629 38.6176 20.223 38.6173 19.5881L38.6169 18.4336L37.9033 18.4324C37.5108 18.4317 36.997 18.3997 36.7615 18.3613L36.3333 18.2915V16.3352V14.3789H31.9374H27.5415V19.222V24.0651H28.6833H29.8251C29.8251 25.987 29.8705 27.9022 29.975 29.8218L32.1361 29.7788L32.1658 33.2445L33.1597 33.2165L34.1536 33.1884C34.2901 33.9125 34.2575 34.6044 34.221 35.3389L30.7943 35.3845V33.4135H29.6917V31.5117H27.5415V28.4462H25.7717V25.7766H23.9922V23.9443H22.3636V21H15.9922V28.1989H17.9922V31.3743H19.9922V34.3743H21.9617V36.7588H23.6024L23.5874 40.3315H24.5442V42.6602H22.0112V41.7397H20.0112V39H18.699V36.7588H15.9922V34.3743H14.4922V33H9.99219L10.0065 34.3743H8.01123L7.9917 39H10.0147L10.0112 41H12.0112V43H12.9645H13.9922L13.9693 44.5076L13.9903 45.7538H15.0112H16.0112V47V49.2768H17.0112V52H19.2323L19.2635 54.4748L19.2263 55.3762C19.1762 56.589 19.1654 56.3779 19.2323 60.4141L19.2635 62.3032L20.2912 62.3595L21.3188 62.4158L21.3493 65.316L21.3797 68.2163H22.4625H23.5453V69.2863V70.3562H25.6428H27.7404L27.8201 71.2573L27.8997 72.1583H36.5196H45.1396L45.1147 71.2291C45.0932 70.4266 45.1155 70.3012 45.2786 70.3093C45.3825 70.3145 45.93 70.3272 46.4952 70.3374L47.5228 70.3562V71.2979V72.2395L46.9234 72.3106C46.5936 72.3497 46.1055 72.3821 45.8387 72.3826L45.3534 72.3836V73.341V74.2983H36.6187H27.8841V73.3541V72.4099L26.7423 72.3923L25.6005 72.3746V76.7154V81.0561H26.7423H27.8841L27.8857 81.8164C27.8865 82.2345 27.9182 82.6906 27.956 82.8301L28.0248 83.0835H31.2039H34.383L34.4162 84.0127L34.4493 84.9419L40.9861 84.9709L47.5228 85V84.0417V83.0835H50.7198H53.9168V82.5924C53.9168 82.3222 53.9495 81.8661 53.9895 81.5787L54.0621 81.0561H55.1872H56.3123L56.342 75.7343L56.3717 70.4126L57.3707 70.38L58.3698 70.3475V68.4371V66.5268H59.3812H60.3925L60.4659 65.8345C60.5062 65.4538 60.5392 64.9216 60.5392 64.6519V64.1616L61.6525 64.1618L62.7657 64.162L62.7679 63.4579C62.769 63.0705 62.7818 62.1836 62.7964 61.4866L62.8228 60.2195H63.9075H64.9922V52.1101V44.0007H63.7933H62.5944V39.6644V35.3282H61.5097H60.425V34.3743V33.4204L57.2754 33.3888C55.5432 33.3713 54.1045 33.3783 54.0784 33.4041C54.0012 33.4805 54.0244 40.5267 54.1043 41.281L54.1777 41.9734L55.1605 41.9737L56.1433 41.974L56.1429 45.1555L56.1423 48.337L55.0867 48.3694L54.031 48.4018L54.027 48.0315C54.0249 47.8278 54.0263 46.5462 54.0303 45.1833C54.0399 41.929 54.05 41.9737 53.3031 41.9721C52.9813 41.9715 52.5253 41.9395 52.2898 41.9011L51.8616 41.8312L51.8626 38.1573C51.8631 36.1367 51.896 34.2173 51.9356 33.8921L52.0076 33.3008H52.9622H53.9168V32.2308V31.1608H55.0593H56.2019L56.1726 22.7417L56.1433 14.3226L55.0301 14.2904L53.9168 14.2582L53.916 13.3893C53.9156 12.9115 53.8825 12.1785 53.8424 11.7603L53.7697 11H49.3175H44.8652L44.9193 22.2067ZM58.2556 52.3961V56.3989L57.2566 56.3663L56.2575 56.3338L56.2275 52.3635L56.1974 48.3933H57.2265H58.2556V52.3961Z"
      fill="white" />
  </g>

  <!-- Frame 3 -->
  <g class="frame frame-3" filter="url(#filter0_d_animated)">
    <path fill-rule="evenodd" clip-rule="evenodd" shape-rendering="crispedges"
      d="M44.9193 22.2067L44.9733 33.4135H43.9644H42.9557V31.4878V29.5623L41.8728 29.6013L40.7899 29.6403L40.7595 26.8246L40.7292 24.0088L39.7477 23.9765L38.7662 23.9443L38.692 22.3434C38.6511 21.4629 38.6175 20.223 38.6173 19.5881L38.6169 18.4336L37.9032 18.4324C37.5108 18.4317 36.997 18.3997 36.7615 18.3613L36.3333 18.2915V16.3352V14.3789H31.9374H27.5415V19.222V24.0651H28.6833H29.8251V25.568C29.8251 26.3946 29.8588 27.6898 29.9001 28.4462L29.975 29.8218L31.0556 29.8003L32.1361 29.7788L32.1509 31.5117L32.1658 33.2445L33.1597 33.2165L34.1536 33.1884L34.2226 33.5544C34.2605 33.7556 34.2757 34.2395 34.2563 34.6295L34.221 35.3389L33.1479 35.3616L32.0748 35.3845H30.7943V33.4135H29.6917V31.5117H27.5415V28.4462H25.7717V25.7766H23.9922V23.9443H22.3636V21H15.9922V28.1989H17.9922V31.3743H19.9922V34.3743H21.9617V36.7588H23.6023V38.3794V40H21.2884L21.2581 41.7397L22.2861 41.772L23.3142 41.8044L23.3441 43.9654L23.374 46.1262L22.3636 46.1616C21.1288 46.2049 21.2324 46.3991 21.1695 43.9235L21.1171 41.8607H19.02H16.9229V43.1515V44.4421L15.9809 44.4749L15.0389 44.5076L15.0008 45.296C14.9798 45.7296 14.9986 47.521 15.0427 49.2768L15.1226 52.4692L16.0101 52.3916L16.8978 52.3141L16.9401 53.2359C16.9938 54.402 17.077 54.4755 18.3434 54.4751L19.2635 54.4748L19.2263 55.3762L19.1891 56.2774H21.3672H23.5452V57.3032C23.5452 58.1923 23.5693 58.3198 23.7259 58.2605C23.8252 58.2229 25.2647 58.1922 26.9248 58.1922H29.9431L29.9127 55.3482L29.8822 52.5043L28.826 52.4719L27.7699 52.4396V51.4344V50.4294L26.7708 50.3969L25.7717 50.3643L25.7389 49.383L25.7059 48.4016L24.6542 48.3693L23.6023 48.337L23.5697 47.2388L23.537 46.1407H24.6258H25.7146V47.2107V48.2807H26.8564H27.9982V49.238V50.1954H29.0596H30.121L30.0735 51.268L30.0259 52.3406L32.1022 52.3098L32.1658 54.4751V56.4181V58.3611L31.1096 58.3935L30.0534 58.4259V59.5142C30.0534 60.3606 30.023 60.5724 29.9164 60.4673C29.8165 60.3687 28.9345 60.3321 26.6623 60.3321H23.5452V59.3748V58.4174L22.3178 58.3985C20.4509 58.3697 19.5625 58.3882 19.3729 58.46C19.2273 58.5151 19.2058 58.8159 19.2323 60.4141L19.2635 62.3032L20.2912 62.3595L21.3188 62.4158L21.3492 65.316L21.3797 68.2163H22.4625H23.5452V69.2863V70.3562H25.6428H27.7404L27.8201 71.2573L27.8997 72.1583H36.5196H45.1396L45.1147 71.2291C45.0932 70.4266 45.1155 70.3012 45.2786 70.3093C45.3825 70.3145 45.93 70.3272 46.4952 70.3374L47.5228 70.3562V71.2979V72.2395L46.9234 72.3106C46.5936 72.3497 46.1055 72.3821 45.8387 72.3826L45.3534 72.3836V73.341V74.2983H36.6187H27.884V73.3541V72.4099L26.7423 72.3923L25.6005 72.3746V76.7154V81.0561H26.7423H27.884L27.8856 81.8164C27.8864 82.2345 27.9182 82.6906 27.956 82.8301L28.0248 83.0835H31.2039H34.383L34.4162 84.0127L34.4493 84.9419L40.9861 84.9709L47.5228 85V84.0417V83.0835H50.7198H53.9168V82.5924C53.9168 82.3222 53.9495 81.8661 53.9895 81.5787L54.0621 81.0561H55.1872H56.3123L56.342 75.7343L56.3717 70.4126L57.3707 70.38L58.3698 70.3475V68.4371V66.5268H59.3812H60.3925L60.4659 65.8345C60.5062 65.4538 60.5392 64.9216 60.5392 64.6519V64.1616L61.6525 64.1618L62.7657 64.162L62.7679 63.4579C62.769 63.0705 62.7818 62.1836 62.7964 61.4866L62.8228 60.2195H63.9075H64.9922V52.1101V44.0007H63.7933H62.5944V39.6644V35.3282H61.5097H60.425V34.3743V33.4204L57.2754 33.3888C55.5432 33.3713 54.1045 33.3783 54.0784 33.4041C54.0012 33.4805 54.0244 40.5267 54.1043 41.281L54.1777 41.9734L55.1605 41.9737L56.1433 41.974L56.1429 45.1555L56.1423 48.337L55.0867 48.3694L54.031 48.4018L54.027 48.0315C54.0249 47.8278 54.0263 46.5462 54.0303 45.1833C54.0399 41.929 54.05 41.9737 53.3031 41.9721C52.9813 41.9715 52.5253 41.9395 52.2898 41.9011L51.8616 41.8312L51.8626 38.1573C51.8631 36.1367 51.896 34.2173 51.9356 33.8921L52.0076 33.3008H52.9622H53.9168V32.2308V31.1608H55.0593H56.2019L56.1726 22.7417L56.1433 14.3226L55.0301 14.2904L53.9168 14.2582L53.916 13.3893C53.9156 12.9115 53.8825 12.1785 53.8424 11.7603L53.7697 11H49.3175H44.8652L44.9193 22.2067ZM58.2556 52.3961V56.3989L57.2566 56.3663L56.2575 56.3338L56.2275 52.3635L56.1974 48.3933H57.2265H58.2556V52.3961Z"
      fill="white" />
  </g>

  <!-- Frame 4 -->
  <g class="frame frame-4" filter="url(#filter0_d_animated)">
    <path fill-rule="evenodd" clip-rule="evenodd" shape-rendering="crispedges"
      d="M44.9733 33.4135H42.9557V29.5623L40.7899 29.6403L40.7292 24.0088L38.7662 23.9443L38.692 22.3434C38.6511 21.4629 38.6175 20.223 38.6173 19.5881L38.6169 18.4336L37.9032 18.4324C37.5108 18.4317 36.997 18.3997 36.7615 18.3613L36.3333 18.2915V14.3789H27.5415V24.0651H29.8251V25.568C29.8251 26.3946 29.8588 27.6898 29.9001 28.4462L29.975 29.8218L32.1361 29.7788L32.1658 33.2445L34.1536 33.1884L34.2226 33.5544C34.2605 33.7556 34.2757 34.2395 34.2563 34.6295L34.221 35.3389L32.0748 35.3845L32.1228 33.4135H23.5452V35.454L21.3188 35.4096L21.2581 41.7397L23.3142 41.8044L23.374 46.1262L22.3636 46.1616C21.1288 46.2049 21.2324 46.3991 21.1695 43.9235L21.1171 41.8607H16.9229V44.4421L15.0389 44.5076L15.0008 45.296C14.9798 45.7296 14.9986 47.521 15.0427 49.2768L15.1226 52.4692L16.8978 52.3141L16.9401 53.2359C16.9938 54.402 17.077 54.4755 18.3434 54.4751L19.2635 54.4748L19.1891 56.2774H23.5452V57.3032C23.5452 58.1923 23.5693 58.3198 23.7259 58.2605C23.8252 58.2229 25.2647 58.1922 26.9248 58.1922H29.9431L29.8822 52.5043L27.7699 52.4396V50.4294L25.7717 50.3643L25.7059 48.4016L23.6023 48.337L23.537 46.1407H25.7146V48.2807H27.9982V50.1954H30.121L30.0259 52.3406L34.1783 52.2791L34.1573 46.1575L35.1596 46.1185C35.7109 46.0971 36.1938 46.0923 36.2326 46.1076C36.2714 46.123 36.3114 47.5286 36.3213 49.2313L36.3394 52.3268L34.221 52.3917L34.3039 54.4753L32.1658 54.4751V58.3611L30.0534 58.4259V59.5142C30.0534 60.3606 30.023 60.5724 29.9164 60.4673C29.8165 60.3687 28.9345 60.3321 26.6623 60.3321H23.5452V58.4174L22.3178 58.3985C20.4509 58.3697 19.5625 58.3882 19.3729 58.46C19.2273 58.5151 19.2058 58.8159 19.2323 60.4141L19.2635 62.3032L21.3188 62.4158L21.3797 68.2163H23.5452V70.3562H27.7404L27.8997 72.1583H45.1396L45.1147 71.2291C45.0932 70.4266 45.1155 70.3012 45.2786 70.3093C45.3825 70.3145 45.93 70.3272 46.4952 70.3374L47.5228 70.3562V72.2395L46.9234 72.3106C46.5936 72.3497 46.1055 72.3821 45.8387 72.3826L45.3534 72.3836V74.2983H27.884V72.4099L25.6005 72.3746V81.0561H27.884L27.8856 81.8164C27.8864 82.2345 27.9182 82.6906 27.956 82.8301L28.0248 83.0835H34.383L34.4493 84.9419L47.5228 85V83.0835H53.9168V82.5924C53.9168 82.3222 53.9495 81.8661 53.9895 81.5787L54.0621 81.0561H56.3123L56.3717 70.4126L58.3698 70.3475V66.5268H60.3925L60.4659 65.8345C60.5062 65.4538 60.5392 64.9216 60.5392 64.6519V64.1616L62.7657 64.162L62.7679 63.4579C62.769 63.0705 62.7818 62.1836 62.7964 61.4866L62.8228 60.2195H64.9922V44.0007H62.5944V35.3282H60.425V33.4204L57.2754 33.3888C55.5432 33.3713 54.1045 33.3783 54.0784 33.4041C54.0012 33.4805 54.0244 40.5267 54.1043 41.281L54.1777 41.9734L56.1433 41.974L56.1423 48.337L54.031 48.4018L54.027 48.0315C54.0249 47.8278 54.0263 46.5462 54.0303 45.1833C54.0399 41.929 54.05 41.9737 53.3031 41.9721C52.9813 41.9715 52.5253 41.9395 52.2898 41.9011L51.8616 41.8312L51.8626 38.1573C51.8631 36.1367 51.896 34.2173 51.9356 33.8921L52.0076 33.3008H53.9168V31.1608H56.2019L56.1433 14.3226L53.9168 14.2582L53.916 13.3893C53.9156 12.9115 53.8825 12.1785 53.8424 11.7603L53.7697 11H44.8652L44.9733 33.4135ZM29.9486 39.8334C30.0063 39.8334 30.0534 40.2642 30.0534 40.7908V41.7481H32.2367L32.0774 43.8881H34.1528L34.0917 44.8736C34.0076 46.232 34.0885 46.1407 32.9685 46.1407H31.9945V43.9738L29.8595 44.0659L29.97 41.9819L27.7128 41.9171L27.7284 39.8897L28.6341 39.8267C29.1321 39.7921 29.608 39.7794 29.6917 39.7986C29.7753 39.8177 29.891 39.8334 29.9486 39.8334ZM58.2556 56.3989L56.2575 56.3338L56.1974 48.3933H58.2556V56.3989Z"
      fill="white" />
  </g>

  <!-- Frame 5 -->
  <g class="frame frame-5" filter="url(#filter0_d_animated)">
    <path fill-rule="evenodd" clip-rule="evenodd" shape-rendering="crispedges"
      d="M53.7779 11L53.8502 11.7598C53.8902 12.1778 53.9239 12.9108 53.9244 13.3887V14.2578L55.0377 14.291L56.1509 14.3223L56.2095 31.1602H53.9244V33.3008H52.0162L51.9439 33.8926C51.9043 34.219 51.8721 36.1385 51.8716 38.1582L51.8697 41.832L52.2974 41.9004C52.5329 41.9388 52.9892 41.972 53.3111 41.9727C54.0579 41.9742 54.0492 41.9292 54.0396 45.1836C54.0356 46.5457 54.0335 47.8266 54.0357 48.0312L54.0396 48.4023L55.0943 48.3691L56.1509 48.3379V41.9746H55.1685L54.1861 41.9727L54.1119 41.2812C54.032 40.5277 54.0096 33.4937 54.0865 33.4043C54.1126 33.3785 55.5516 33.3712 57.2838 33.3887L60.4341 33.4199V35.3281H62.6021V44H65.0005V60.2188H62.8306L62.8052 61.4863C62.7906 62.1828 62.7771 63.0693 62.7759 63.457L62.774 64.1621H60.5474V64.6523C60.5474 64.9221 60.5154 65.4536 60.4752 65.834L60.4009 66.5273H58.3775V70.3477L57.3795 70.3809L56.3795 70.4121L56.3209 81.0566H54.0709L53.9986 81.5781C53.9587 81.8652 53.9244 82.3215 53.9244 82.5918V83.084H47.5318V85L34.4576 84.9414L34.3912 83.084H28.0338L27.9634 82.8301C27.9257 82.6904 27.8939 82.2343 27.8931 81.8164V81.0566H25.608V72.375L27.8931 72.4102V74.2988H45.3619V72.3828H45.8463C46.1131 72.3824 46.6024 72.3496 46.9322 72.3105L47.5318 72.2402V70.3555L46.5045 70.3379C45.9404 70.3277 45.3931 70.3138 45.2877 70.3086C45.1245 70.3005 45.1022 70.4266 45.1236 71.2285L45.147 72.1582H27.9088L27.7486 70.3555H23.5533V68.2168H21.3873L21.3267 62.416L19.272 62.3027L19.2408 60.4141C19.2143 58.8167 19.236 58.5162 19.3814 58.4609C19.5709 58.3892 20.4598 58.3696 22.3267 58.3984L23.5533 58.418V60.332H26.6705C28.9392 60.332 29.8223 60.3686 29.9244 60.4668C30.0309 60.5719 30.0611 60.3601 30.0611 59.5137V58.4258L31.1177 58.3926L32.1744 58.3613V54.4746H34.3131L34.2701 53.4336L34.2291 52.3926L36.3482 52.3262L36.3345 50.1992L37.3209 50.2305L42.983 50.2637L43.2115 50.0293V48.1152H36.3131C36.3009 47.2887 36.2849 46.6271 36.2642 46.3105V45.9746H34.0865L34.1197 47.0723L34.1509 48.1719H34.1724L34.1861 52.2793L30.0338 52.3398L30.0826 51.2676L30.1295 50.1953H28.0064V48.2812H25.7232V46.1406H23.5455L23.5787 47.2383L23.6099 48.3379L24.6627 48.3691L25.7134 48.4023L25.7798 50.3652L26.7798 50.3965L27.7779 50.4297V52.4395L28.8345 52.4727L29.8912 52.5039L29.9517 58.1914H26.9341C25.2785 58.1914 23.8413 58.2223 23.7349 58.2598C23.5784 58.319 23.5533 58.1918 23.5533 57.3027V56.2773H19.1978L19.272 54.4746H18.3521C17.0859 54.4749 17.0015 54.4021 16.9478 53.2363L16.9068 52.3145L16.0181 52.3906L15.1314 52.4688L15.0513 49.2773C15.0073 47.5228 14.9874 45.7321 15.0084 45.2969L15.0474 44.5078L16.9322 44.4414V41.8613H21.1256L21.1783 43.9238C21.2412 46.3988 21.1372 46.2054 22.3716 46.1621L23.3814 46.127L23.3228 41.8047L22.2935 41.7715L21.2662 41.7402L21.3267 35.4102L23.5533 35.4531V33.4141H31.899L31.9439 41.748H30.0611L29.9791 41.9824L29.9224 43.0234L29.8677 44.0664L31.9595 43.9746C31.9728 44.5426 31.9816 44.955 32.0025 45.2539V46.1406H32.9771C33.5911 46.1406 33.8404 46.166 33.9576 45.9668L34.1568 45.9609L34.147 44.0957L34.1607 43.8887H34.147L34.0963 33.3008L33.067 33.2676L32.1724 33.2402L32.1451 29.7793L40.7974 29.6406L42.9634 29.5625V33.4141H44.981L44.8736 11H53.7779ZM56.2056 48.3926L56.2662 56.334L57.2642 56.3672L58.2642 56.3984V48.3926H56.2056ZM44.1588 41.7266L43.1568 41.7656L43.1763 47.8867L43.2193 48L45.3384 47.9336L45.3209 44.8379C45.3109 43.1358 45.2698 41.7306 45.231 41.7148C45.1908 41.6996 44.7089 41.7052 44.1588 41.7266ZM41.0767 37.5625L40.9927 37.6484V41.748H41.9673C43.0871 41.7481 43.0063 41.8388 43.0904 40.4805L43.1509 37.5625H41.0767Z"
      fill="white" />
  </g>

  <!-- Frame 6 -->
  <g class="frame frame-6" filter="url(#filter0_d_animated)">
    <path fill-rule="evenodd" clip-rule="evenodd" shape-rendering="crispedges"
      d="M53.8511 27C53.8912 27.418 53.9249 28.151 53.9254 28.6289V29.498L55.0386 29.5312L56.1519 29.5625L56.2105 31.4817H53.9254V33.3008H52.0172L51.9449 33.8926C51.9053 34.219 51.8731 36.1385 51.8726 38.1582L51.8707 41.832L52.2984 41.9004C52.5341 41.9387 52.9906 41.972 53.3121 41.9727C54.0581 41.9742 54.0502 41.9305 54.0406 45.1836C54.0376 46.209 54.0365 47.1884 54.0367 47.6973L48.6714 47.7051C47.0156 47.7051 45.5779 47.736 45.4722 47.7734C45.4043 47.7991 45.3645 47.7893 45.3375 47.6973L45.3218 44.8379C45.3119 43.1379 45.2708 31.9607 45.232 31.918C45.1918 31.9028 44.7095 31.9084 44.1597 31.9297L43.1578 31.9688L43.1773 47.8867L43.2203 48L45.2906 47.9336V49.8457H48.4078C50.6757 49.8457 53.8856 49.8745 53.9918 49.9727C54.0983 50.0777 54.1285 49.8659 54.1285 49.0195V48.3984L56.1519 48.3379V41.9746H55.1695L54.1871 41.9727L54.1129 41.2812C54.033 40.5277 54.0105 33.4937 54.0875 33.4043C54.1293 33.3789 55.5623 33.3713 57.2847 33.3887L60.4351 33.4199V35.3281H62.6031V44H65.0015V60.2188H62.8316L62.8062 61.4863C62.7916 62.1828 62.7781 63.0693 62.7769 63.457L62.775 64.1621H60.5484V64.6523C60.5484 64.9221 60.5164 65.4536 60.4761 65.834L60.4019 66.5273H58.3785V70.3477L57.3804 70.3809L56.3804 70.4121L56.3218 81.0566H54.0718L53.9996 81.5781C53.9596 81.8652 53.9254 82.3215 53.9254 82.5918V83.084H47.5328V85L34.4586 84.9414L34.3922 83.084H28.0347L27.9644 82.8301C27.9267 82.6904 27.8949 82.2343 27.8941 81.8164V81.0566H25.6089V72.375L27.8941 72.4102V74.2988H45.3629V72.3828H45.8472C46.1143 72.3823 46.6038 72.3496 46.9332 72.3105L47.5328 72.2402V70.3555L46.5054 70.3379C45.9429 70.3277 45.3962 70.3138 45.2886 70.3086C45.1255 70.3005 45.1031 70.4266 45.1246 71.2285L45.148 72.1582H27.9097L27.7496 70.3555H23.5543V68.2168H21.3882L21.3277 62.416L19.273 62.3027L19.2418 60.4141C19.2153 58.8167 19.237 58.5162 19.3824 58.4609C19.5735 58.3894 20.4632 58.3696 22.3277 58.3984L23.5543 58.418V60.332H26.6714C28.9395 60.332 29.8232 60.3686 29.9254 60.4668C30.0315 60.5708 30.0621 60.3589 30.0621 59.5137V58.4258L31.1187 58.3926L32.1754 58.3613V54.4746H34.314L34.2711 53.4336L34.23 52.3926L36.3492 52.3262L36.3355 50.1992L37.3218 50.2305L42.9839 50.2637L43.2125 50.0293V48.1152H36.314C36.3019 47.2887 36.2859 46.6271 36.2652 46.3105V45.9746H34.0875L34.1207 47.0723L34.1519 48.1719H34.1734L34.1871 52.2793L30.0347 52.3398L30.0836 51.2676L30.1304 50.1953H28.0074V48.2812H25.7242V46.1406H23.5464L23.5797 47.2383L23.6109 48.3379L24.6636 48.3691L25.7144 48.4023L25.7808 50.3652L26.7808 50.3965L27.7789 50.4297V52.4395L28.8355 52.4727L29.8922 52.5039L29.9527 58.1914H26.9351C25.2833 58.1914 23.8481 58.2224 23.7359 58.2598C23.5794 58.319 23.5543 58.1918 23.5543 57.3027V56.2773H19.1988L19.273 54.4746H18.3531C17.0869 54.4749 17.0025 54.402 16.9488 53.2363L16.9078 52.3145L16.0191 52.3906L15.1324 52.4688L15.0523 49.2773C15.0083 47.5228 14.9884 45.7321 15.0093 45.2969L15.0484 44.5078L16.9332 44.4414V41.8613H21.1265L21.1793 43.9238C21.2421 46.3988 21.1382 46.2054 22.3726 46.1621L23.3824 46.127L23.3238 41.8047L22.2945 41.7715L21.2672 41.7402L21.3277 35.4102L23.5543 35.4531V33.4141H31.9L31.9449 41.748H30.0621L29.98 41.9824L29.9234 43.0234L29.8687 44.0664L31.9605 43.9746C31.9738 44.5425 31.9826 44.955 32.0035 45.2539V46.1406H33.3726C33.7075 46.1384 33.8707 46.1162 33.9586 45.9668L34.1578 45.9609L34.148 44.0957L34.1617 43.8887H34.148L34.0972 33.3008L33.0679 33.2676L32.1734 33.2402L32.1461 29.7793L40.7984 29.6406L42.9644 29.5625H44.982L44.8746 26.2402H53.7789L53.8511 27ZM56.2672 56.334L57.2652 56.3672L58.2652 56.3984V48.3926H56.2066L56.2672 56.334Z"
      fill="white" />
  </g>

  <!-- Frame 7 -->
  <g class="frame frame-7" filter="url(#filter0_d_animated)">
    <path fill-rule="evenodd" clip-rule="evenodd" shape-rendering="crispedges"
      d="M53.7779 11L53.8502 11.7598C53.8902 12.1778 53.9239 12.9108 53.9244 13.3887V14.2578L55.0377 14.291L56.1509 14.3223L56.2095 31.1602H53.9244V33.3008H52.0162L51.9439 33.8926C51.9043 34.219 51.8721 36.1385 51.8716 38.1582L51.8697 41.832L52.2974 41.9004C52.5329 41.9388 52.9892 41.972 53.3111 41.9727C54.0579 41.9742 54.0492 41.9292 54.0396 45.1836C54.0356 46.5457 54.0335 47.8266 54.0357 48.0312L54.0396 48.4023L55.0943 48.3691L56.1509 48.3379V41.9746H55.1685L54.1861 41.9727L54.1119 41.2812C54.032 40.5277 54.0096 33.4937 54.0865 33.4043C54.1126 33.3785 55.5516 33.3712 57.2838 33.3887L60.4341 33.4199V35.3281H62.6021V44H65.0005V60.2188H62.8306L62.8052 61.4863C62.7906 62.1828 62.7771 63.0693 62.7759 63.457L62.774 64.1621H60.5474V64.6523C60.5474 64.9221 60.5154 65.4536 60.4752 65.834L60.4009 66.5273H58.3775V70.3477L57.3795 70.3809L56.3795 70.4121L56.3209 81.0566H54.0709L53.9986 81.5781C53.9587 81.8652 53.9244 82.3215 53.9244 82.5918V83.084H47.5318V85L34.4576 84.9414L34.3912 83.084H28.0338L27.9634 82.8301C27.9257 82.6904 27.8939 82.2343 27.8931 81.8164V81.0566H25.608V72.375L27.8931 72.4102V74.2988H45.3619V72.3828H45.8463C46.1131 72.3824 46.6024 72.3496 46.9322 72.3105L47.5318 72.2402V70.3555L46.5045 70.3379C45.9404 70.3277 45.3931 70.3138 45.2877 70.3086C45.1245 70.3005 45.1022 70.4266 45.1236 71.2285L45.147 72.1582H27.9088L27.7486 70.3555H23.5533V68.2168H21.3873L21.3267 62.416L19.272 62.3027L19.2408 60.4141C19.2143 58.8167 19.236 58.5162 19.3814 58.4609C19.5709 58.3892 20.4598 58.3696 22.3267 58.3984L23.5533 58.418V60.332H26.6705C28.9392 60.332 29.8223 60.3686 29.9244 60.4668C30.0309 60.5719 30.0611 60.3601 30.0611 59.5137V58.4258L31.1177 58.3926L32.1744 58.3613V54.4746H34.3131L34.2701 53.4336L34.2291 52.3926L36.3482 52.3262L36.3345 50.1992L37.3209 50.2305L42.983 50.2637L43.2115 50.0293V48.1152H36.3131C36.3009 47.2887 36.2849 46.6271 36.2642 46.3105V45.9746H34.0865L34.1197 47.0723L34.1509 48.1719H34.1724L34.1861 52.2793L30.0338 52.3398L30.0826 51.2676L30.1295 50.1953H28.0064V48.2812H25.7232V46.1406H23.5455L23.5787 47.2383L23.6099 48.3379L24.6627 48.3691L25.7134 48.4023L25.7798 50.3652L26.7798 50.3965L27.7779 50.4297V52.4395L28.8345 52.4727L29.8912 52.5039L29.9517 58.1914H26.9341C25.2785 58.1914 23.8413 58.2223 23.7349 58.2598C23.5784 58.319 23.5533 58.1918 23.5533 57.3027V56.2773H19.1978L19.272 54.4746H18.3521C17.0859 54.4749 17.0015 54.4021 16.9478 53.2363L16.9068 52.3145L16.0181 52.3906L15.1314 52.4688L15.0513 49.2773C15.0073 47.5228 14.9874 45.7321 15.0084 45.2969L15.0474 44.5078L16.9322 44.4414V41.8613H21.1256L21.1783 43.9238C21.2412 46.3988 21.1372 46.2054 22.3716 46.1621L23.3814 46.127L23.3228 41.8047L22.2935 41.7715L21.2662 41.7402L21.3267 35.4102L23.5533 35.4531V33.4141H31.899L31.9439 41.748H30.0611L29.9791 41.9824L29.9224 43.0234L29.8677 44.0664L31.9595 43.9746C31.9728 44.5426 31.9816 44.955 32.0025 45.2539V46.1406H32.9771C33.5911 46.1406 33.8404 46.166 33.9576 45.9668L34.1568 45.9609L34.147 44.0957L34.1607 43.8887H34.147L34.0963 33.3008L33.067 33.2676L32.1724 33.2402L32.1451 29.7793L40.7974 29.6406L42.9634 29.5625V33.4141H44.981L44.8736 11H53.7779ZM56.2056 48.3926L56.2662 56.334L57.2642 56.3672L58.2642 56.3984V48.3926H56.2056ZM44.1588 41.7266L43.1568 41.7656L43.1763 47.8867L43.2193 48L45.3384 47.9336L45.3209 44.8379C45.3109 43.1358 45.2698 41.7306 45.231 41.7148C45.1908 41.6996 44.7089 41.7052 44.1588 41.7266ZM41.0767 37.5625L40.9927 37.6484V41.748H41.9673C43.0871 41.7481 43.0063 41.8388 43.0904 40.4805L43.1509 37.5625H41.0767Z"
      fill="white" />
  </g>

  <!-- Frame 8 -->
  <g class="frame frame-8" filter="url(#filter0_d_animated)">
    <path fill-rule="evenodd" clip-rule="evenodd" shape-rendering="crispedges"
      d="M44.9733 33.4135H42.9557V29.5623L40.7899 29.6403L40.7292 24.0088L38.7662 23.9443L38.692 22.3434C38.6511 21.4629 38.6175 20.223 38.6173 19.5881L38.6169 18.4336L37.9032 18.4324C37.5108 18.4317 36.997 18.3997 36.7615 18.3613L36.3333 18.2915V14.3789H27.5415V24.0651H29.8251V25.568C29.8251 26.3946 29.8588 27.6898 29.9001 28.4462L29.975 29.8218L32.1361 29.7788L32.1658 33.2445L34.1536 33.1884L34.2226 33.5544C34.2605 33.7556 34.2757 34.2395 34.2563 34.6295L34.221 35.3389L32.0748 35.3845L32.1228 33.4135H23.5452V35.454L21.3188 35.4096L21.2581 41.7397L23.3142 41.8044L23.374 46.1262L22.3636 46.1616C21.1288 46.2049 21.2324 46.3991 21.1695 43.9235L21.1171 41.8607H16.9229V44.4421L15.0389 44.5076L15.0008 45.296C14.9798 45.7296 14.9986 47.521 15.0427 49.2768L15.1226 52.4692L16.8978 52.3141L16.9401 53.2359C16.9938 54.402 17.077 54.4755 18.3434 54.4751L19.2635 54.4748L19.1891 56.2774H23.5452V57.3032C23.5452 58.1923 23.5693 58.3198 23.7259 58.2605C23.8252 58.2229 25.2647 58.1922 26.9248 58.1922H29.9431L29.8822 52.5043L27.7699 52.4396V50.4294L25.7717 50.3643L25.7059 48.4016L23.6023 48.337L23.537 46.1407H25.7146V48.2807H27.9982V50.1954H30.121L30.0259 52.3406L34.1783 52.2791L34.1573 46.1575L35.1596 46.1185C35.7109 46.0971 36.1938 46.0923 36.2326 46.1076C36.2714 46.123 36.3114 47.5286 36.3213 49.2313L36.3394 52.3268L34.221 52.3917L34.3039 54.4753L32.1658 54.4751V58.3611L30.0534 58.4259V59.5142C30.0534 60.3606 30.023 60.5724 29.9164 60.4673C29.8165 60.3687 28.9345 60.3321 26.6623 60.3321H23.5452V58.4174L22.3178 58.3985C20.4509 58.3697 19.5625 58.3882 19.3729 58.46C19.2273 58.5151 19.2058 58.8159 19.2323 60.4141L19.2635 62.3032L21.3188 62.4158L21.3797 68.2163H23.5452V70.3562H27.7404L27.8997 72.1583H45.1396L45.1147 71.2291C45.0932 70.4266 45.1155 70.3012 45.2786 70.3093C45.3825 70.3145 45.93 70.3272 46.4952 70.3374L47.5228 70.3562V72.2395L46.9234 72.3106C46.5936 72.3497 46.1055 72.3821 45.8387 72.3826L45.3534 72.3836V74.2983H27.884V72.4099L25.6005 72.3746V81.0561H27.884L27.8856 81.8164C27.8864 82.2345 27.9182 82.6906 27.956 82.8301L28.0248 83.0835H34.383L34.4493 84.9419L47.5228 85V83.0835H53.9168V82.5924C53.9168 82.3222 53.9495 81.8661 53.9895 81.5787L54.0621 81.0561H56.3123L56.3717 70.4126L58.3698 70.3475V66.5268H60.3925L60.4659 65.8345C60.5062 65.4538 60.5392 64.9216 60.5392 64.6519V64.1616L62.7657 64.162L62.7679 63.4579C62.769 63.0705 62.7818 62.1836 62.7964 61.4866L62.8228 60.2195H64.9922V44.0007H62.5944V35.3282H60.425V33.4204L57.2754 33.3888C55.5432 33.3713 54.1045 33.3783 54.0784 33.4041C54.0012 33.4805 54.0244 40.5267 54.1043 41.281L54.1777 41.9734L56.1433 41.974L56.1423 48.337L54.031 48.4018L54.027 48.0315C54.0249 47.8278 54.0263 46.5462 54.0303 45.1833C54.0399 41.929 54.05 41.9737 53.3031 41.9721C52.9813 41.9715 52.5253 41.9395 52.2898 41.9011L51.8616 41.8312L51.8626 38.1573C51.8631 36.1367 51.896 34.2173 51.9356 33.8921L52.0076 33.3008H53.9168V31.1608H56.2019L56.1433 14.3226L53.9168 14.2582L53.916 13.3893C53.9156 12.9115 53.8825 12.1785 53.8424 11.7603L53.7697 11H44.8652L44.9733 33.4135ZM29.9486 39.8334C30.0063 39.8334 30.0534 40.2642 30.0534 40.7908V41.7481H32.2367L32.0774 43.8881H34.1528L34.0917 44.8736C34.0076 46.232 34.0885 46.1407 32.9685 46.1407H31.9945V43.9738L29.8595 44.0659L29.97 41.9819L27.7128 41.9171L27.7284 39.8897L28.6341 39.8267C29.1321 39.7921 29.608 39.7794 29.6917 39.7986C29.7753 39.8177 29.891 39.8334 29.9486 39.8334ZM58.2556 56.3989L56.2575 56.3338L56.1974 48.3933H58.2556V56.3989Z"
      fill="white" />
  </g>
</svg>